<svg width="24" height="24" fill="none" xmlns="http://www.w3.org/2000/svg"><path d="M11.120 2.039 C 8.641 2.287,6.414 3.362,4.761 5.107 C 1.806 8.228,1.158 12.819,3.137 16.623 C 3.620 17.552,4.164 18.288,4.938 19.061 C 5.930 20.051,7.038 20.789,8.272 21.278 C 11.634 22.610,15.313 22.080,18.200 19.845 C 18.637 19.507,19.507 18.637,19.845 18.200 C 21.256 16.378,22.000 14.236,22.000 12.000 C 22.000 7.432,18.842 3.387,14.430 2.303 C 13.446 2.062,12.028 1.948,11.120 2.039 M13.239 4.101 C 14.106 4.244,14.870 4.491,15.606 4.866 C 16.035 5.084,16.880 5.619,16.880 5.671 C 16.880 5.709,5.709 16.880,5.672 16.880 C 5.656 16.880,5.515 16.687,5.358 16.450 C 3.202 13.198,3.664 8.941,6.465 6.236 C 7.780 4.967,9.410 4.227,11.340 4.024 C 11.660 3.991,12.869 4.039,13.239 4.101 M18.642 7.550 C 20.778 10.771,20.349 14.996,17.614 17.688 C 16.699 18.588,15.732 19.186,14.560 19.576 C 12.513 20.257,10.415 20.121,8.492 19.182 C 8.018 18.951,7.120 18.391,7.120 18.328 C 7.120 18.291,18.292 7.120,18.328 7.120 C 18.344 7.120,18.485 7.314,18.642 7.550 " fill="currentColor" stroke="none" fill-rule="evenodd"></path></svg>